<?xml version="1.0" encoding="UTF-8"?>
<svg width="24px" height="24px" viewBox="0 0 24 24" version="1.1" xmlns="http://www.w3.org/2000/svg" xmlns:xlink="http://www.w3.org/1999/xlink">
    <title>Instagram</title>
    <g id="Instagram" stroke="none" stroke-width="1" fill="none" fill-rule="evenodd">
        <circle id="Oval" fill="#E85356" cx="12" cy="12" r="12"></circle>
        <g id="Group" transform="translate(6.000000, 6.000000)" fill="#FFFFFF">
            <path d="M5.99973438,0 C4.37044579,0 4.16592147,0.0069060162 3.52578689,0.0361237771 C2.887246,0.0653415379 2.45110452,0.166806853 2.06967993,0.315020585 C1.67497455,0.468546638 1.34029838,0.673602196 1.00668467,1.0072159 C0.673070964,1.34029838 0.468015406,1.67550578 0.315020585,2.06967993 C0.166806853,2.45163575 0.0648103059,2.88777724 0.035592545,3.52631812 C0.0069060162,4.1664527 0,4.37044579 0,5.99973438 C0,7.62955421 0.0069060162,7.83407853 0.035592545,8.47368188 C0.0648103059,9.11222276 0.166806853,9.54836425 0.315020585,9.93032007 C0.468015406,10.3250255 0.673070964,10.6591704 1.00668467,10.9927841 C1.34029838,11.3263978 1.67497455,11.5319846 2.06967993,11.6849794 C2.45110452,11.8331931 2.887246,11.9346585 3.52578689,11.9638762 C4.16592147,11.993094 4.37044579,12 5.99973438,12 C7.62902298,12 7.8335473,11.993094 8.47368188,11.9638762 C9.11222276,11.9346585 9.54836425,11.8331931 9.92978884,11.6849794 C10.3244942,11.5319846 10.6591704,11.3263978 10.9927841,10.9927841 C11.3263978,10.6591704 11.5314534,10.3250255 11.6844482,9.93032007 C11.8326619,9.54836425 11.9341272,9.11222276 11.9638762,8.47368188 C11.9925628,7.83407853 11.9994688,7.62955421 11.9994688,5.99973438 C11.9994688,4.37044579 11.9925628,4.1664527 11.9638762,3.52631812 C11.9341272,2.88777724 11.8326619,2.45163575 11.6844482,2.06967993 C11.5314534,1.67550578 11.3263978,1.34029838 10.9927841,1.0072159 C10.6591704,0.673602196 10.3244942,0.468546638 9.92978884,0.315020585 C9.54836425,0.166806853 9.11222276,0.0653415379 8.47368188,0.0361237771 C7.8335473,0.0069060162 7.62902298,0 5.99973438,0 M5.99973438,1.08105715 C7.60193014,1.08105715 7.79157997,1.0869007 8.4242773,1.11611846 C9.00916375,1.14268007 9.3268405,1.24042676 9.53827084,1.32276772 C9.81823011,1.43167028 10.0179733,1.56129089 10.22781,1.77112754 C10.4381779,1.98149542 10.5683297,2.18123866 10.6772323,2.46119793 C10.759042,2.67262827 10.8567887,2.99030502 10.8833503,3.57519146 C10.9125681,4.2078888 10.9184116,4.39806986 10.9184116,5.99973438 C10.9184116,7.60246138 10.9125681,7.79157997 10.8833503,8.4242773 C10.8567887,9.00916375 10.759042,9.32737173 10.6772323,9.53880207 C10.5683297,9.81876134 10.4381779,10.0185046 10.22781,10.2283412 C10.0179733,10.4381779 9.81823011,10.5683297 9.53827084,10.6772323 C9.3268405,10.7595732 9.00916375,10.8573199 8.4242773,10.8838815 C7.79157997,10.9125681 7.60193014,10.9189428 5.99973438,10.9189428 C4.39753862,10.9189428 4.2078888,10.9125681 3.57519146,10.8838815 C2.99030502,10.8573199 2.67262827,10.7595732 2.46119793,10.6772323 C2.18123866,10.5683297 1.98149542,10.4381779 1.77112754,10.2283412 C1.56129089,10.0185046 1.43113905,9.81876134 1.32223649,9.53880207 C1.24042676,9.32737173 1.14214883,9.00916375 1.11558723,8.4242773 C1.0869007,7.79157997 1.08105715,7.60246138 1.08105715,5.99973438 C1.08105715,4.39806986 1.0869007,4.2078888 1.11558723,3.57519146 C1.14214883,2.99030502 1.24042676,2.67262827 1.32223649,2.46119793 C1.43113905,2.18123866 1.56129089,1.98149542 1.77112754,1.77112754 C1.98149542,1.56129089 2.18123866,1.43167028 2.46119793,1.32276772 C2.67262827,1.24042676 2.99030502,1.14268007 3.57519146,1.11611846 C4.2078888,1.0869007 4.39753862,1.08105715 5.99973438,1.08105715" id="Fill-3"></path>
            <path d="M5.99973438,7.99987605 C4.89477179,7.99987605 3.99964585,7.10421887 3.99964585,5.99978751 C3.99964585,4.89535615 4.89477179,4.0002302 5.99973438,4.0002302 C7.10416574,4.0002302 7.99982292,4.89535615 7.99982292,5.99978751 C7.99982292,7.10421887 7.10416574,7.99987605 5.99973438,7.99987605 M5.99973438,2.91917305 C4.29819824,2.91917305 2.91858869,4.29825136 2.91858869,5.99978751 C2.91858869,7.70132365 4.29819824,9.0809332 5.99973438,9.0809332 C7.70127053,9.0809332 9.08088007,7.70132365 9.08088007,5.99978751 C9.08088007,4.29825136 7.70127053,2.91917305 5.99973438,2.91917305" id="Fill-5"></path>
            <path d="M9.92251096,2.79730842 C9.92251096,3.19466997 9.60005312,3.51712781 9.20269158,3.51712781 C8.8047988,3.51712781 8.48234096,3.19466997 8.48234096,2.79730842 C8.48234096,2.39941564 8.8047988,2.07748904 9.20269158,2.07748904 C9.60005312,2.07748904 9.92251096,2.39941564 9.92251096,2.79730842" id="Fill-7"></path>
        </g>
    </g>
</svg>