<?xml version="1.0" encoding="UTF-8"?>
<svg width="24px" height="24px" viewBox="0 0 24 24" version="1.1" xmlns="http://www.w3.org/2000/svg" xmlns:xlink="http://www.w3.org/1999/xlink">
    <title>Twitter</title>
    <g id="Twitter" stroke="none" stroke-width="1" fill="none" fill-rule="evenodd">
        <circle id="Oval" fill="#E85356" cx="12" cy="12" r="12"></circle>
        <path d="M6,15.6456198 C7.08951756,16.3442668 8.3834905,16.7520842 9.77367774,16.7520842 C14.3444034,16.7520842 16.9268826,12.8914856 16.7716277,9.42831762 C17.2521525,9.08172748 17.6692634,8.64821648 18,8.15402487 C17.5577422,8.3497335 17.0832308,8.48202815 16.5857592,8.54161542 C17.0936176,8.23766571 17.4839415,7.75495422 17.6676233,7.17985513 C17.1920186,7.46193795 16.6650267,7.66694 16.1052344,7.77736777 C15.6558699,7.29848298 15.0162635,7 14.3077764,7 C12.7191472,7 11.5509088,8.48257483 11.9095258,10.0230969 C9.86333197,9.92032254 8.04947383,8.9401394 6.83531502,7.45045784 C6.19078857,8.55746891 6.50129835,10.0050567 7.59737597,10.7375974 C7.19393194,10.7250239 6.81344813,10.6135028 6.48161815,10.4292743 C6.45537789,11.570179 7.27265273,12.6367364 8.45674457,12.8745387 C8.10960776,12.969113 7.73076397,12.9904332 7.34481345,12.9166325 C7.65805658,13.8951756 8.56717234,14.6063961 9.64466311,14.6266229 C8.60981276,15.4378844 7.30599973,15.7997813 6,15.6456198" id="Fill-3" fill="#FFFFFF"></path>
    </g>
</svg>